<svg id="encryption">
    <symbol id="icon-encryption" viewBox="0 0 29 40">
      <path d="M14.5,40C6.5,40,0,33.5,0,25.5C0,17.5,6.5,11,14.5,11c8,0,14.5,6.5,14.5,14.5C29,33.5,22.5,40,14.5,40z M14.5,12.2c-7.3,0-13.3,6-13.3,13.3c0,7.3,6,13.3,13.3,13.3c7.3,0,13.3-6,13.3-13.3C27.8,18.2,21.8,12.2,14.5,12.2z"/>
      <path d="M14.5,28.8c-0.9,0-1.7-0.3-2.3-1c-0.6-0.6-1-1.4-1-2.3c0-0.9,0.3-1.7,1-2.3c1.3-1.3,3.4-1.3,4.7,0 c1.3,1.3,1.3,3.4,0,4.7l0,0c0,0,0,0,0,0l0,0C16.2,28.4,15.4,28.8,14.5,28.8z M14.5,23.4c-0.5,0-1.1,0.2-1.5,0.6 c-0.4,0.4-0.6,0.9-0.6,1.5c0,0.6,0.2,1.1,0.6,1.5c0.8,0.8,2.1,0.8,2.9,0v0c0.8-0.8,0.8-2.1,0-2.9C15.6,23.6,15,23.4,14.5,23.4z"/>
      <rect x="15.9" y="22" transform="matrix(0.7126 -0.7016 0.7016 0.7126 -10.8593 18.6312)" width="2.7" height="1.2"/>
      <path d="M22.5,13.9h-1.2V7.7c0-3.6-3-6.5-6.8-6.5c-3.7,0-6.8,2.9-6.8,6.5l0,6l-1.2,0l0-6c0-4.3,3.6-7.7,8-7.7 s8,3.5,8,7.7V13.9z"/>
      <rect x="22.8" y="24.9" class="st1" width="1.6" height="1.2"/>
      <rect x="4.5" y="24.9" class="st1" width="1.6" height="1.2"/>
      <rect x="13.9" y="33.8" class="st1" width="1.2" height="1.6"/>
      <rect x="13.9" y="15.4" class="st1" width="1.2" height="1.6"/>
      <rect x="20.3" y="18.1" transform="matrix(0.7075 -0.7067 0.7067 0.7075 -7.0728 20.412)" width="1.6" height="1.2"/>
      <rect x="7" y="31.5" transform="matrix(0.7075 -0.7067 0.7067 0.7075 -20.4006 14.8871)" width="1.6" height="1.2"/>
      <rect x="20.5" y="31.3" transform="matrix(0.7068 -0.7074 0.7074 0.7068 -16.5067 24.3501)" width="1.2" height="1.6"/>
      <rect x="7.2" y="18" transform="matrix(0.7071 -0.7071 0.7071 0.7071 -10.9789 10.9962)" width="1.2" height="1.6"/>
    </symbol>
</svg>