<svg id="gaming">
    <symbol id="icon-gaming" viewBox="0 0 32 32">
      <path d="M16.5,13c-0.2,0-0.4-0.2-0.4-0.4c0-0.5-0.1-0.6-1-1.2c-1.8-1.2-4-2.6-2.6-5.2l1.3-2.3c0.1-0.2,0.3-0.2,0.5-0.1 c0.2,0.1,0.2,0.3,0.1,0.5l-1.3,2.3c-1,1.9,0.3,2.9,2.4,4.2c1,0.6,1.4,1,1.4,1.8C16.9,12.8,16.7,13,16.5,13L16.5,13L16.5,13z"/>
      <path d="M25,28.3c-2.2,0-5.9-2.5-7.2-5.4h-3.8c-1.3,3-4.8,5.4-6.9,5.4c-4,0-4-5.5-4-7.9c-0.1-3.4,2.6-6.2,6-6.3h14 c3.4,0.1,6.1,2.9,6,6.3C29,22.8,29,28.3,25,28.3z M13.7,22.2H18c0.1,0,0.3,0.1,0.3,0.2c1.2,2.9,4.9,5.1,6.7,5.1 c2.9,0,3.3-3.6,3.3-7.1c0.1-3-2.3-5.5-5.3-5.6l0,0H9c-3,0.1-5.4,2.6-5.3,5.6c0,3.5,0.4,7.1,3.3,7.1c1.9,0,5.2-2.4,6.3-5.1 C13.4,22.3,13.5,22.2,13.7,22.2z M23,14.8L23,14.8z"/>
      <path d="M8.6,22.4c-1.4,0-2.5-1.1-2.6-2.5c0-1.4,1.1-2.5,2.5-2.6c1.4,0,2.5,1.1,2.6,2.5c0,0,0,0,0,0 C11.1,21.2,10,22.4,8.6,22.4z M8.6,18.1c-1,0-1.8,0.8-1.8,1.8c0,1,0.8,1.8,1.8,1.8c1,0,1.8-0.8,1.8-1.8c0,0,0,0,0,0 C10.3,18.9,9.6,18.1,8.6,18.1L8.6,18.1z"/>
      <path d="M23.4,22.4c-0.2,0-0.4-0.2-0.4-0.4v-4.3c0-0.2,0.2-0.4,0.4-0.4c0.2,0,0.4,0.2,0.4,0.4V22 C23.8,22.2,23.6,22.4,23.4,22.4z"/>
      <path d="M25.6,20.2h-4.2c-0.2,0-0.4-0.2-0.4-0.4c0-0.2,0.2-0.4,0.4-0.4h4.2c0.2,0,0.4,0.2,0.4,0.4 C25.9,20.1,25.8,20.2,25.6,20.2z"/>
    </symbol>
</svg>