<svg id="leandata">
    <symbol id="icon-leandata" viewBox="0 0 28 34">
      <path d="M9.2,28.9L9.2,28.9c-0.7,0-1.3-0.6-1.3-1.3c0,0,0,0,0,0l0,0c0-0.7,0.6-1.3,1.3-1.3c0.7,0,1.3,0.6,1.3,1.3 c0,0.3-0.1,0.7-0.4,0.9C9.9,28.8,9.6,28.9,9.2,28.9z M9.2,27.1c-0.3,0-0.5,0.2-0.5,0.5c0,0.3,0.2,0.5,0.5,0.5l0,0 c0.1,0,0.2,0,0.3-0.1c0.1-0.1,0.1-0.2,0.1-0.3C9.7,27.4,9.5,27.1,9.2,27.1L9.2,27.1z"/>
      <path d="M9.2,31c-2.1,0-3.8-1.7-3.8-3.7l0.9-13c-1.1-0.7-3.8-2.8-3.8-5.5c0-2.2,1.1-4.3,3-5.5c0.1-0.1,0.3-0.1,0.4,0 C6,3.3,6.1,3.5,6.1,3.6v3.9l1.5,2.2h3.2l1.5-2.2V3.6c0-0.2,0.1-0.3,0.2-0.4c0.1-0.1,0.3-0.1,0.4,0c1.9,1.2,3,3.3,3,5.5 c0,2.7-2.7,4.7-3.8,5.5L13,27.2C13,29.3,11.3,31,9.2,31C9.2,31,9.2,31,9.2,31z M5.3,4.4c-1.3,1.1-2,2.7-2,4.3c0,2.5,2.8,4.4,3.7,4.9 c0.1,0.1,0.2,0.2,0.2,0.4L6.2,27.3c0.1,1.6,1.5,2.9,3.1,2.8c1.5-0.1,2.7-1.3,2.8-2.8l-0.9-13.2c0-0.2,0.1-0.3,0.2-0.4 c0.8-0.5,3.7-2.5,3.7-4.9c0-1.7-0.7-3.3-2-4.3v3.2c0,0.1,0,0.2-0.1,0.2l-1.7,2.5c-0.1,0.1-0.2,0.2-0.3,0.2H7.4 c-0.1,0-0.3-0.1-0.4-0.2L5.3,7.9c0-0.1-0.1-0.1-0.1-0.2V4.4z"/>
      <path d="M21.5,31c-2.2,0-4-1.5-4-3.3V21c0-0.2,0.1-0.3,0.2-0.4c0.5-0.2,0.8-0.6,0.8-1.1c0-0.5-0.4-0.9-0.8-1.1 c-0.1-0.1-0.2-0.2-0.2-0.4v-2.5c0-0.2,0.2-0.4,0.4-0.4h7.1c0.2,0,0.4,0.2,0.4,0.4v2.5c0,0.2-0.1,0.3-0.2,0.4 c-0.5,0.2-0.8,0.6-0.8,1.1c0,0.5,0.4,0.9,0.8,1.1c0.1,0.1,0.2,0.2,0.2,0.4v6.7C25.5,29.5,23.7,31,21.5,31z M18.4,21.2v6.5 c0,1.4,1.4,2.5,3.2,2.5c1.7,0,3.2-1.1,3.2-2.5v-6.5c-0.9-0.5-1.3-1.6-0.9-2.5c0.2-0.4,0.5-0.7,0.9-0.9v-1.8h-6.3v1.8 c0.9,0.5,1.3,1.6,0.9,2.5C19.1,20.7,18.8,21.1,18.4,21.2z"/>
      <path d="M21.5,16.1c-0.2,0-0.4-0.2-0.4-0.4V6.5c0-0.2,0.2-0.4,0.4-0.4c0.2,0,0.4,0.2,0.4,0.4v9.2 C22,15.9,21.8,16.1,21.5,16.1z"/>
      <path d="M22.2,6.9h-1.4c-0.2,0-0.3-0.1-0.4-0.3l-0.6-1.8c0-0.1,0-0.2,0-0.3l0.6-1.3C20.5,3.1,20.7,3,20.8,3h1.4 c0.2,0,0.3,0.1,0.4,0.3l0.6,1.3c0,0.1,0,0.2,0,0.3l-0.5,1.8C22.6,6.8,22.4,6.9,22.2,6.9z M21.1,6.1h0.8l0.4-1.3L22,3.8h-0.9 l-0.4,0.9L21.1,6.1z"/>
      <path d="M21.5,28c-0.2,0-0.4-0.2-0.4-0.4V22c0-0.2,0.2-0.4,0.4-0.4c0.2,0,0.4,0.2,0.4,0.4v5.6 C21.9,27.8,21.8,28,21.5,28z"/>
    </symbol>
</svg>