<svg id="nethealth">
    <symbol id="icon-nethealth" viewBox="0 0 30 30">
      <path d="M4.3,9.3"/>
      <path d="M25.7,9.3"/>
      <path d="M14.8,20.1L14.6,20c-4.4-3-4.6-5.8-4.6-5.9v-0.2c0-0.8,0.3-1.6,0.8-2.1c0.6-0.6,1.3-0.9,2.1-0.9c0.7,0,1.4,0.3,1.9,0.7 c0.5-0.4,1.2-0.7,1.9-0.7c0.8,0,1.5,0.3,2.1,0.9c0.6,0.6,0.8,1.3,0.8,2.1c0,0.5-0.1,1-0.4,1.5C18.6,17,17.2,18.6,15,20L14.8,20.1z M13,11.6c-0.6,0-1.1,0.3-1.5,0.7c-0.4,0.4-0.6,1-0.6,1.6l0,0.2c0,0,0.1,2.4,4,5.1c2.8-1.9,3.5-3.6,3.7-4.2c0.2-0.4,0.3-0.8,0.3-1.2 v0c0-0.6-0.2-1.2-0.6-1.6c-0.4-0.4-1-0.7-1.6-0.7c-0.6,0-1.2,0.3-1.6,0.7l-0.3,0.3l-0.3-0.3C14.1,11.8,13.6,11.6,13,11.6z"/>
      <path d="M14.8,2.5C14.8,2.5,14.8,2.5,14.8,2.5C14.8,2.5,14.8,2.5,14.8,2.5C14.8,2.5,14.8,2.5,14.8,2.5C7.9,2.5,2.3,8.1,2.3,15 c0,6.9,5.6,12.5,12.5,12.5c0,0,0,0,0,0c0,0,0,0,0,0c0,0,0,0,0,0c6.9,0,12.5-5.6,12.5-12.5C27.3,8.1,21.7,2.5,14.8,2.5z M3.1,15 c0-5.3,3.5-9.8,8.3-11.2C8.8,5.8,7,10.1,7,15c0,4.9,1.8,9.2,4.4,11.2C6.6,24.8,3.1,20.3,3.1,15z M15.2,26.7l0-7l-0.8,0l0,7 c-3.7-0.3-6.7-5.4-6.7-11.7c0-6.3,3-11.4,6.7-11.7l0,8.7l0.8,0l0-8.7c3.7,0.3,6.7,5.4,6.7,11.7C21.9,21.3,18.9,26.4,15.2,26.7z M18.2,26.2c2.6-2,4.4-6.3,4.4-11.2c0-4.9-1.8-9.2-4.4-11.2c4.8,1.5,8.3,5.9,8.3,11.2C26.6,20.3,23.1,24.8,18.2,26.2z"/>
      <path d="M3.3,9.3"/>
      <path d="M12.9,15c0.6,0,1.1-0.5,1.1-1.1c0-0.6-0.5-1.1-1.1-1.1c-0.5,0-0.9,0.3-1.1,0.7H3.3c-1,0-1.9-0.9-1.9-1.9s0.9-1.9,1.9-1.9 h22.3V8.9H3.3c-1.5,0-2.7,1.2-2.7,2.7s1.2,2.7,2.7,2.7h8.5C11.9,14.7,12.4,15,12.9,15z M12.9,13.5c0.2,0,0.4,0.2,0.4,0.4 c0,0.2-0.2,0.4-0.4,0.4c-0.2,0-0.4-0.2-0.4-0.4C12.5,13.7,12.7,13.5,12.9,13.5z"/>
      <path d="M26.7,15.8h-9.8c-0.2-0.4-0.6-0.7-1-0.7c-0.6,0-1.1,0.5-1.1,1.1c0,0.6,0.5,1.1,1.1,1.1c0.5,0,0.9-0.3,1.1-0.8h9.7 c1,0,1.9,0.9,1.9,1.9c0,1-0.9,1.9-1.9,1.9H4.3v0.8h22.4c1.5,0,2.7-1.2,2.7-2.7C29.4,17,28.2,15.8,26.7,15.8z M15.9,16.6 c-0.2,0-0.4-0.2-0.4-0.4s0.2-0.4,0.4-0.4c0.2,0,0.4,0.2,0.4,0.4S16.1,16.6,15.9,16.6z"/>
    </symbol>
</svg>