<svg id="rust">
    <symbol id="icon-rust" viewBox="0 0 32 32">
      <path d="M16,29.1c-0.3,0-0.5-0.1-0.6-0.4l-0.5-0.9l-0.7,0.8c-0.2,0.2-0.4,0.3-0.7,0.2c-0.3-0.1-0.5-0.3-0.5-0.5 l-0.4-0.9L11.7,28c-0.3,0.2-0.8,0.2-1.1-0.2c-0.1-0.1-0.1-0.2-0.1-0.3l-0.2-1l-0.9,0.4C9.2,27,9,27,8.7,26.9 c-0.2-0.1-0.3-0.4-0.3-0.7v-1l-1,0.2c-0.4,0.1-0.8-0.2-0.9-0.6c0-0.1,0-0.2,0-0.3l0.3-1h-1c-0.3,0-0.5-0.1-0.7-0.3 C5,23,5,22.7,5.1,22.5l0.4-0.9l-1-0.1c-0.3,0-0.5-0.2-0.6-0.5c-0.1-0.2-0.1-0.5,0.1-0.7l0.6-0.8l-0.9-0.4c-0.4-0.2-0.6-0.6-0.4-1 c0-0.1,0.1-0.2,0.2-0.2l0.8-0.7l-0.9-0.5c-0.4-0.2-0.4-0.7-0.2-1.1c0.1-0.1,0.1-0.2,0.2-0.2l0.9-0.5l-0.8-0.7 c-0.3-0.3-0.2-0.8,0.1-1.1c0,0,0.1-0.1,0.2-0.1l0.9-0.4L4,11.7c-0.2-0.3-0.2-0.8,0.2-1.1c0.1-0.1,0.2-0.1,0.3-0.1l1-0.2L5.1,9.5 C5,9.2,5,9,5.2,8.8c0.1-0.2,0.4-0.3,0.6-0.3l1,0l-0.2-1C6.5,7.1,6.8,6.7,7.2,6.6c0.1,0,0.2,0,0.3,0l1,0.2v-1 c0-0.4,0.4-0.8,0.8-0.7c0.1,0,0.1,0,0.2,0l0.9,0.4l0.2-1c0-0.3,0.2-0.5,0.5-0.6c0.2-0.1,0.5-0.1,0.7,0.1l0.8,0.6l0.4-0.9 c0.1-0.2,0.3-0.4,0.5-0.5c0.3,0,0.5,0,0.7,0.2l0.7,0.8l0.5-0.9c0.2-0.4,0.7-0.4,1.1-0.2c0.1,0.1,0.2,0.1,0.2,0.2l0.5,0.9l0.7-0.8 c0.2-0.2,0.4-0.3,0.7-0.2c0.2,0.1,0.4,0.2,0.5,0.5l0.4,0.9L20.3,4c0.3-0.2,0.8-0.2,1.1,0.2c0.1,0.1,0.1,0.2,0.1,0.3l0.2,1l0.9-0.4 C22.8,5,23,5,23.3,5.1c0.2,0.1,0.3,0.4,0.3,0.7v1l1-0.2c0.4-0.1,0.8,0.2,0.9,0.6c0,0.1,0,0.2,0,0.3l-0.2,1h1 c0.3,0,0.5,0.1,0.7,0.3C27,9,27,9.3,26.9,9.5l-0.4,0.9l1,0.2c0.4,0.1,0.7,0.5,0.6,0.9c0,0.1-0.1,0.2-0.1,0.3l-0.6,0.8l0.9,0.4 c0.4,0.2,0.6,0.6,0.4,1c0,0.1-0.1,0.2-0.2,0.2l-0.8,0.7l0.9,0.5c0.4,0.2,0.4,0.7,0.2,1.1c-0.1,0.1-0.1,0.2-0.2,0.2l-0.9,0.5 l0.8,0.7c0.3,0.3,0.2,0.8-0.1,1.1c0,0-0.1,0.1-0.2,0.1l-0.9,0.4l0.6,0.8c0.2,0.2,0.2,0.5,0.1,0.7c-0.1,0.2-0.3,0.4-0.6,0.5l-1,0.2 l0.4,0.9c0.1,0.2,0.1,0.5-0.1,0.7c-0.1,0.2-0.4,0.3-0.7,0.3h-1l0.2,1c0.1,0.4-0.2,0.8-0.6,0.9c-0.1,0-0.2,0-0.3,0l-1-0.2v1 c0,0.3-0.1,0.5-0.3,0.7C23,27,22.7,27,22.5,26.9l-0.9-0.4l-0.1,1c0,0.3-0.2,0.5-0.5,0.6c-0.2,0.1-0.5,0.1-0.7-0.1l-0.8-0.6 l-0.4,0.9c-0.1,0.2-0.3,0.4-0.6,0.5c-0.3,0-0.5,0-0.7-0.2l-0.7-0.8l-0.5,0.9C16.5,28.9,16.3,29,16,29.1z M14.7,27L14.7,27h0.3 c0.1,0,0.2,0.1,0.3,0.2l0.6,1.1l0.6-1.1c0.1-0.1,0.2-0.2,0.3-0.2h0.3c0.1,0,0.2,0,0.3,0.1l0.9,0.9l0.4-1.2c0-0.1,0.1-0.2,0.3-0.3 l0.3-0.1c0.1,0,0.2,0,0.3,0.1l1,0.7l0.2-1.2c0-0.1,0.1-0.2,0.2-0.3l0.2-0.1c0.1-0.1,0.3-0.1,0.4,0l1.1,0.5L22.8,25 c0-0.1,0-0.2,0.1-0.3l0.2-0.2c0.1-0.1,0.2-0.1,0.3-0.1l1.2,0.3l-0.3-1.2c0-0.1,0-0.2,0.1-0.3l0.2-0.2c0.1-0.1,0.2-0.1,0.3-0.1 l1.3,0l-0.5-1.1c-0.1-0.1-0.1-0.2,0-0.3l0.1-0.3c0.1-0.1,0.2-0.2,0.3-0.2l1.2-0.2l-0.8-1c-0.1-0.1-0.1-0.2-0.1-0.3l0.1-0.3 c0-0.1,0.1-0.2,0.2-0.3l1.2-0.4l-0.9-0.8c-0.1-0.1-0.1-0.2-0.1-0.3v-0.3c0-0.1,0.1-0.2,0.2-0.3l1.1-0.6l-1-0.6 c-0.1-0.1-0.2-0.2-0.2-0.3v-0.3c0-0.1,0-0.2,0.1-0.3l0.9-0.9l-1.2-0.4c-0.1,0-0.2-0.2-0.2-0.3l-0.1-0.3c0-0.1,0-0.2,0.1-0.3l0.7-1 l-1.2-0.2c-0.1,0-0.2-0.1-0.3-0.2l-0.1-0.3c-0.1-0.1-0.1-0.2,0-0.3l0.5-1.1L25,9.2c-0.1,0-0.2,0-0.3-0.1l-0.2-0.2 c-0.1-0.1-0.1-0.2-0.1-0.3l0.3-1.2l-1.2,0.3c-0.1,0-0.2,0-0.3,0l-0.2-0.2c-0.1-0.1-0.2-0.2-0.1-0.3l0-1.3l-1.1,0.5 c-0.1,0.1-0.2,0.1-0.3,0l-0.3-0.1C21,6.1,20.9,6,20.9,5.9l-0.2-1.2l-1,0.8c-0.1,0.1-0.2,0.1-0.3,0.1l-0.3-0.1 c-0.1,0-0.2-0.1-0.3-0.2l-0.4-1.2l-0.8,0.9C17.5,5,17.3,5,17.2,5h-0.3c-0.1,0-0.2-0.1-0.3-0.2L16,3.7l-0.6,1.1 c-0.1,0.1-0.2,0.2-0.3,0.2h-0.3c-0.1,0-0.2,0-0.3-0.1L13.6,4l-0.4,1.2c0,0.1-0.1,0.2-0.3,0.2l-0.3,0.1c-0.1,0-0.2,0-0.3-0.1 l-1-0.7l-0.2,1.2c0,0.1-0.1,0.2-0.2,0.3l-0.3,0.1c-0.1,0.1-0.2,0.1-0.3,0L9.2,5.8L9.2,7c0,0.1,0,0.2-0.1,0.3L8.9,7.6 C8.8,7.6,8.6,7.7,8.5,7.6L7.3,7.3l0.3,1.2c0,0.1,0,0.2-0.1,0.3L7.3,9.1C7.3,9.2,7.1,9.2,7,9.2L5.8,9.2l0.5,1.1 c0.1,0.1,0.1,0.2,0,0.3l-0.1,0.3C6.1,11,6,11.1,5.9,11.1l-1.2,0.2l0.8,1c0.1,0.1,0.1,0.2,0.1,0.3l-0.1,0.3c0,0.1-0.1,0.2-0.2,0.3 l-1.2,0.4l0.9,0.8C4.9,14.6,5,14.7,5,14.8c0,0.1,0,0.2,0,0.3c0,0.1-0.1,0.2-0.2,0.3L3.7,16l1.1,0.6c0.1,0.1,0.2,0.2,0.2,0.3 c0,0.1,0,0.2,0,0.3c0,0.1,0,0.2-0.1,0.3l-0.9,0.9l1.2,0.4c0.1,0,0.2,0.1,0.2,0.3l0.1,0.3c0,0.1,0,0.2-0.1,0.3l-0.7,1l1.2,0.2 c0.1,0,0.2,0.1,0.3,0.2l0.2,0.3c0.1,0.1,0.1,0.2,0,0.3l-0.5,1.1L7,22.8c0.1,0,0.2,0,0.3,0.1l0.2,0.2c0.1,0.1,0.1,0.2,0.1,0.3 l-0.3,1.2l1.2-0.3c0.1,0,0.2,0,0.3,0.1l0.2,0.2c0.1,0.1,0.2,0.2,0.1,0.3l-0.1,1.2l1.1-0.5c0.1-0.1,0.2-0.1,0.3,0l0.3,0.1 c0.1,0.1,0.2,0.2,0.2,0.3l0.2,1.2l1-0.8c0.1-0.1,0.2-0.1,0.3-0.1l0.3,0.1c0.1,0,0.2,0.1,0.3,0.2l0.4,1.2l0.8-0.9 C14.5,27.1,14.6,27,14.7,27z M28.3,16L28.3,16z M19.6,21.8c-0.8,0-1.5-1-1.7-1.5c-0.1-0.5-0.2-0.9-0.3-1.4 c-0.1-0.3-0.1-0.5-0.1-0.6c-0.1-0.6-0.5-1-1.1-1h-2v0.9h1.8c0.3,0,0.5,0.2,0.5,0.4c0,0,0,0,0,0.1v2.7c0,0.3-0.2,0.5-0.5,0.5 c0,0,0,0-0.1,0H8.5c-0.2,0-0.4-0.2-0.4-0.4v-3c0-0.2,0.2-0.4,0.4-0.4h0.8v-5.1H8.4c-0.2,0-0.4-0.2-0.4-0.4V9.8 c0-0.2,0.2-0.4,0.4-0.4h10.5c0.8,0,1.5,0.3,2.2,0.7c1,0.6,1.6,1.6,1.6,2.8c-0.1,1.1-0.7,2.1-1.6,2.7c0.7,0.6,1.2,1.5,1.2,2.4 c0.2,0.1,0.4,0.2,0.7,0.2c0.4,0,0.8-0.3,0.8-0.8c0-0.1,0-0.1,0-0.2v-0.4c0-0.3,0.2-0.5,0.5-0.5c0,0,0,0,0,0h0.9 c0.2,0,0.4,0.2,0.4,0.4v2.7c0.1,1.3-0.8,2.4-2.1,2.5c-0.1,0-0.1,0-0.2,0L19.6,21.8L19.6,21.8z M13.9,16.5h2.4 c0.9,0,1.7,0.7,1.8,1.5c0,0.1,0.1,0.4,0.1,0.7c0.1,0.4,0.2,1.1,0.3,1.3c0.1,0.5,0.5,0.9,1,1.1h3.8c0.8,0,1.5-0.7,1.5-1.5 c0-0.1,0-0.1,0-0.2V17h-0.3v0.2c0.1,0.8-0.5,1.6-1.4,1.7c0,0,0,0-0.1,0c-0.6,0.1-1.3-0.2-1.5-0.8c0-0.9-0.5-1.8-1.3-2.3 c-0.1-0.1-0.2-0.2-0.2-0.3c0-0.1,0.1-0.2,0.2-0.3c1.1-0.7,1.7-1.5,1.7-2.3c0-0.9-0.5-1.7-1.3-2.1c-0.5-0.3-1.1-0.5-1.8-0.6H8.8v2 h0.9c0.2,0,0.4,0.2,0.4,0.4v5.9c0,0.2-0.2,0.4-0.4,0.4H8.9V21h6.9v-2.1h-1.9c-0.2,0-0.4-0.2-0.4-0.4v-1.7 C13.5,16.6,13.7,16.5,13.9,16.5L13.9,16.5z M16.8,14.7h-2.9c-0.2,0-0.4-0.2-0.4-0.4v-1.7c0-0.2,0.2-0.4,0.4-0.4H17 c0.4,0,1.5,0.3,1.5,1.3C18.5,14.3,17.9,14.7,16.8,14.7z M14.3,14h2.5c0.4,0,1-0.1,1-0.4c0-0.3-0.8-0.5-0.8-0.5h-2.7L14.3,14 L14.3,14z"/>
    </symbol>
</svg>