<svg id="servo">
    <symbol id="icon-servo" viewBox="0 0 32 32">
      <path d="M18.3,22.8h-4.8c-0.2,0-0.4-0.2-0.4-0.4s0.2-0.4,0.4-0.4h4.8c0.2,0,0.4,0.2,0.4,0.4S18.6,22.8,18.3,22.8z"/>
      <path d="M8.6,22.8c-0.2,0-0.4-0.2-0.4-0.4c0-0.1,0-0.2,0.1-0.2l3.2-3.7l-3.2-3.7c-0.1-0.2-0.1-0.4,0.1-0.5 c0.2-0.1,0.4-0.1,0.5,0.1l3.4,4c0.1,0.1,0.1,0.3,0,0.5l-3.4,4C8.8,22.8,8.7,22.8,8.6,22.8z"/>
      <path d="M25.2,8.7L24.5,8l0.7-0.7c0.1-0.1,0.1-0.4,0-0.5c-0.1-0.1-0.4-0.1-0.5,0L24,7.5l-0.6-0.7 c-0.1-0.1-0.4-0.2-0.5,0c-0.1,0.1-0.2,0.4,0,0.5L23.5,8l-0.7,0.7c-0.1,0.1-0.1,0.2-0.1,0.3c0,0.2,0.2,0.4,0.4,0.4 c0.1,0,0.2,0,0.3-0.1L24,8.5l0.7,0.7c0.1,0.1,0.2,0.1,0.3,0.1c0.1,0,0.2,0,0.3-0.1C25.3,9.1,25.3,8.8,25.2,8.7z"/>
      <path d="M28,5.4C28,5.2,27.8,5,27.6,5H4.4C4.2,5,4,5.2,4,5.4v21.3C4,26.8,4.2,27,4.4,27h23.3c0.2,0,0.4-0.2,0.4-0.4V5.4 z M27,6v5H5V6H27z M5,26V12h22v14H5z"/>
      <path d="M20.8,9.2h-1.6c-0.2,0-0.4-0.2-0.4-0.4V7.3c0-0.2,0.2-0.4,0.4-0.4h1.6c0.2,0,0.4,0.2,0.4,0.4v1.6 C21.1,9.1,21,9.2,20.8,9.2z M19.5,8.5h0.9V7.6h-0.9C19.5,7.6,19.5,8.5,19.5,8.5z"/>
      <path d="M16.8,9.2h-1.6c-0.2,0-0.4-0.2-0.4-0.4c0-0.2,0.2-0.4,0.4-0.4h1.6c0.2,0,0.4,0.2,0.4,0.4 C17.2,9.1,17,9.2,16.8,9.2z"/>
    </symbol>
</svg>