<svg id="teachtheweb">
    <symbol id="icon-teachtheweb" viewBox="0 0 30 30">
      <path d="M27.5,15c0-6.8-5.4-12.3-12.2-12.5c-0.1,0-0.1,0-0.2,0c0,0,0,0,0,0c0,0,0,0,0,0c0,0,0,0,0,0c0,0,0,0-0.1,0 C8.1,2.5,2.5,8.1,2.5,15S8.1,27.5,15,27.5c0,0,0,0,0.1,0c0,0,0,0,0,0c0,0,0,0,0,0c0,0,0,0,0,0c0.1,0,0.1,0,0.2,0 C22.1,27.3,27.5,21.8,27.5,15z M20.8,15c0,6.4-2.5,11.5-5.5,11.7c-0.1,0-0.2,0-0.2,0c-3.1,0-5.7-5.3-5.7-11.7 c0-6.4,2.6-11.7,5.7-11.7c0.1,0,0.2,0,0.2,0C18.4,3.5,20.8,8.6,20.8,15z M3.3,15c0-5.6,3.9-10.3,9.2-11.4C10.2,5.5,8.7,9.8,8.7,15 c0,5.2,1.5,9.5,3.8,11.4C7.2,25.3,3.3,20.6,3.3,15z M17.9,26.3c2.2-2,3.7-6.2,3.7-11.3s-1.5-9.4-3.7-11.3C23,5,26.7,9.5,26.7,15 C26.7,20.5,23,25,17.9,26.3z"/>
      <path d="M15,27.5c-0.2,0-0.4-0.2-0.4-0.4V2.9c0-0.2,0.2-0.4,0.4-0.4c0.2,0,0.4,0.2,0.4,0.4v24.2 C15.4,27.3,15.2,27.5,15,27.5z"/>
      <path d="M27.1,15.9H2.9c-0.2,0-0.4-0.2-0.4-0.4c0-0.2,0.2-0.4,0.4-0.4h24.2c0.2,0,0.4,0.2,0.4,0.4 C27.5,15.7,27.3,15.9,27.1,15.9z"/>
      <path d="M26.2,11.1H3.8c-0.2,0-0.4-0.2-0.4-0.4s0.2-0.4,0.4-0.4h22.4c0.2,0,0.4,0.2,0.4,0.4S26.4,11.1,26.2,11.1z"/>
      <path d="M25.8,20.5H4.2c-0.2,0-0.4-0.2-0.4-0.4s0.2-0.4,0.4-0.4h21.6c0.2,0,0.4,0.2,0.4,0.4S26,20.5,25.8,20.5z"/>
    </symbol>
</svg>