<svg id="vr">
    <symbol id="icon-vr" viewBox="0 0 39 40">
      <g>
        <path d="M22.1,30.6l-2.6,0.1L17,30.6c-0.3,0-0.5,0.2-0.5,0.4s0.2,0.5,0.4,0.5c0.8,0.1,1.6,0.1,2.4,0.1 c0.1,0,0.1,0,0.2,0c0,0,0,0,0,0c0.9,0,1.8-0.1,2.6-0.2c0.3,0,0.4-0.3,0.4-0.5S22.3,30.6,22.1,30.6z"/>
        <path d="M36.9,18.6C36.9,18.6,36.9,18.6,36.9,18.6c-0.6-6-1.7-9.6-3.5-10.7c-0.5-0.3-1.5-0.6-3-0.8 c-1.7-1.8-4.1-3-7.4-3.5C22.9,2.7,22.2,2,21.3,2h-3.6c-0.9,0-1.6,0.7-1.7,1.6C12.8,4,10.3,5.2,8.6,7.1C7.1,7.3,6.1,7.6,5.5,7.9 C3.8,9,2.6,12.6,2.1,18.6c-0.4,4.1,0.2,6.9,1.6,7.9c0.7,0.5,1.3,0.7,2,0.7c0.4,0,0.7,0,1.1-0.1c0.2,0,0.3,0,0.5-0.1 c0.3,3.2,2.9,6.3,4.5,8.2c0.2,0.3,0.4,0.5,0.6,0.7c1.6,2,5.3,2,7.3,2h0.2c0.1,0,0.1,0,0.2,0c2.2,0,5.4,0,7-2 c0.2-0.2,0.4-0.5,0.7-0.8c1.6-1.9,4.1-5,4.4-8.2c1.9,0,2.9-0.1,3.5-0.5C36.2,25.9,37.2,22.8,36.9,18.6z M23,4.6 c2.5,0.4,4.4,1.2,5.8,2.4c-0.1,0-0.2,0-0.3,0c-0.2,0-0.4,0-0.5,0c-0.4,0-0.8-0.1-1.3-0.1c-0.2,0-0.3,0-0.5,0 c-0.6,0-1.2-0.1-1.7-0.1c0,0,0,0-0.1,0c-0.5,0-0.9,0-1.4,0V4.6z M17,4V3.7C17,3.3,17.3,3,17.7,3h3.6C21.7,3,22,3.3,22,3.7V4v2.6h-5 V4z M16,4.6v2.1c-0.5,0-0.9,0-1.4,0c0,0,0,0-0.1,0c-0.6,0-1.2,0-1.7,0.1c-0.2,0-0.3,0-0.5,0c-0.4,0-0.9,0.1-1.3,0.1 c-0.2,0-0.3,0-0.5,0c-0.1,0-0.2,0-0.3,0C11.7,5.7,13.6,4.9,16,4.6z M26.7,34.6c-0.3,0.3-0.5,0.6-0.7,0.8C24.8,37,21.7,37,19.7,37 h-0.2c-1.8,0-5.2,0-6.5-1.7c-0.2-0.2-0.4-0.4-0.6-0.7c-1.5-1.8-4-4.8-4.3-7.7c1-0.1,1.9-0.2,2.8-0.3c0.3,0,0.6-0.1,0.9-0.1 c2.7-0.3,6.9-0.5,7.7-0.5c0.8,0,5,0.2,7.7,0.5c0.3,0,0.7,0.1,1.1,0.1c0.9,0.1,1.7,0.2,2.6,0.3C30.7,29.8,28.3,32.7,26.7,34.6z M34.8,25.7c-0.4,0.3-1.5,0.4-3.3,0.3c-1.1-0.1-2.3-0.2-3.3-0.3l-0.8-0.1c-2.7-0.3-6.9-0.6-7.8-0.6c-0.9,0-5.1,0.2-7.8,0.5 l-0.9,0.1c-1,0.1-2.1,0.3-3.2,0.3c-0.1,0-0.1,0-0.2,0.1c-0.3,0-0.5,0-0.8,0.1c-1,0.1-1.6,0.2-2.4-0.4c-1.1-0.8-1.5-3.4-1.2-7.1 c0.5-5.5,1.6-9,3-9.9C6.5,8.5,7.5,8.2,8.9,8c2.5-0.3,5.1-0.4,7.6-0.4h6c2.5,0,5.1,0.2,7.6,0.4c1.5,0.2,2.4,0.4,2.8,0.7 c1.4,0.9,2.5,4.4,3,9.9C36.3,23.1,35.1,25.5,34.8,25.7z"/>
        <path d="M23,16.4l-6.2-3.6l-0.3-0.1c-0.2-0.1-0.3-0.1-0.5,0c-0.1,0.1-0.2,0.2-0.2,0.4v7.4c0,0.2,0.1,0.3,0.2,0.4 c0.1,0,0.2,0.1,0.2,0.1c0.1,0,0.2,0,0.2-0.1l6.5-3.7c0.2-0.1,0.2-0.2,0.2-0.4C23.2,16.7,23.1,16.5,23,16.4z M16.7,19.7V14l5,2.9 L16.7,19.7z"/>
      </g>
      <path d="M16.2,21c-0.1,0-0.2,0-0.2-0.1c-0.1-0.1-0.2-0.2-0.2-0.4v-7.4c0-0.2,0.1-0.3,0.2-0.4c0.1-0.1,0.3-0.1,0.5,0 l0.3,0.1l6.2,3.6c0.2,0.1,0.2,0.2,0.2,0.4c0,0.2-0.1,0.3-0.2,0.4L16.5,21C16.4,21,16.3,21,16.2,21z M16.7,14v5.7l5-2.9l-2.9-1.6 c0,0,0,0,0,0L16.7,14z"/>
      <path d="M19.4,31.8c-0.9,0-1.7,0-2.6-0.1c-0.3,0-0.5-0.3-0.4-0.5s0.2-0.5,0.5-0.4l2.6,0.1c0.3,0,0.5,0.2,0.5,0.5 C20,31.6,19.8,31.8,19.4,31.8C19.5,31.8,19.5,31.8,19.4,31.8z"/>
      <path d="M19.6,31.8C19.5,31.8,19.5,31.8,19.6,31.8c-0.3,0-0.6-0.2-0.6-0.5c0-0.3,0.2-0.5,0.5-0.5l2.6-0.1 c0.3,0,0.5,0.2,0.5,0.4c0,0.3-0.2,0.5-0.4,0.5C21.3,31.7,20.4,31.8,19.6,31.8z"/>
    </symbol>
</svg>